HIERARCHY
ROOT Hips
{
 OFFSET 0.000000 0.000000 0.000000
 CHANNELS 6 Xposition Yposition Zposition Yrotation Xrotation Zrotation
 JOINT Chest
 {
  OFFSET 0.000000 9.588913 -0.003946
  CHANNELS 3 Yrotation Xrotation Zrotation
  JOINT Chest2
  {
   OFFSET 0.000000 9.541882 0.008053
   CHANNELS 3 Yrotation Xrotation Zrotation
   JOINT Chest3
   {
    OFFSET 0.000000 9.501360 0.000000
    CHANNELS 3 Yrotation Xrotation Zrotation
    JOINT Chest4
    {
     OFFSET 0.000000 9.491660 0.000000
     CHANNELS 3 Yrotation Xrotation Zrotation
     JOINT Neck
     {
      OFFSET 0.000000 14.331917 0.000000
      CHANNELS 3 Yrotation Xrotation Zrotation
      JOINT Head
      {
       OFFSET 0.000000 8.884799 0.017034
       CHANNELS 3 Yrotation Xrotation Zrotation
       End Site
       {
        OFFSET 0.000000 16.896195 0.008993
       }
      }
     }
     JOINT RightCollar
     {
      OFFSET -2.923010 9.499495 0.000000
      CHANNELS 3 Yrotation Xrotation Zrotation
      JOINT RightShoulder
      {
       OFFSET -13.795216 0.000000 0.000000
       CHANNELS 3 Yrotation Xrotation Zrotation
       JOINT RightElbow
       {
        OFFSET -30.272209 0.000000 0.000000
        CHANNELS 3 Yrotation Xrotation Zrotation
        JOINT RightWrist
        {
         OFFSET -24.478199 0.000000 0.000000
         CHANNELS 3 Yrotation Xrotation Zrotation
         End Site
         {
          OFFSET -18.090752 0.000000 0.000000
         }
        }
       }
      }
     }
     JOINT LeftCollar
     {
      OFFSET 2.923010 9.499495 0.000000
      CHANNELS 3 Yrotation Xrotation Zrotation
      JOINT LeftShoulder
      {
       OFFSET 13.795216 0.000000 0.000000
       CHANNELS 3 Yrotation Xrotation Zrotation
       JOINT LeftElbow
       {
        OFFSET 30.272209 0.000000 0.000000
        CHANNELS 3 Yrotation Xrotation Zrotation
        JOINT LeftWrist
        {
         OFFSET 24.478199 0.000000 0.000000
         CHANNELS 3 Yrotation Xrotation Zrotation
         End Site
         {
          OFFSET 18.090752 0.000000 0.000000
         }
        }
       }
      }
     }
    }
   }
  }
 }
 JOINT RightHip
 {
  OFFSET -7.826875 0.019532 0.001973
  CHANNELS 3 Yrotation Xrotation Zrotation
  JOINT RightKnee
  {
   OFFSET 0.000000 -40.546152 -0.001885
   CHANNELS 3 Yrotation Xrotation Zrotation
   JOINT RightAnkle
   {
    OFFSET 0.000000 -39.417092 -0.003189
    CHANNELS 3 Yrotation Xrotation Zrotation
    JOINT RightToe
    {
     OFFSET 0.000000 -7.579396 17.243563
     CHANNELS 3 Yrotation Xrotation Zrotation
     End Site
     {
      OFFSET 0.000000 -1.500329 6.694466
     }
    }
   }
  }
 }
 JOINT LeftHip
 {
  OFFSET 7.826875 0.019532 0.001973
  CHANNELS 3 Yrotation Xrotation Zrotation
  JOINT LeftKnee
  {
   OFFSET 0.000000 -40.546152 -0.001885
   CHANNELS 3 Yrotation Xrotation Zrotation
   JOINT LeftAnkle
   {
    OFFSET 0.000000 -39.417092 -0.003189
    CHANNELS 3 Yrotation Xrotation Zrotation
    JOINT LeftToe
    {
     OFFSET 0.000000 -7.579396 17.243563
     CHANNELS 3 Yrotation Xrotation Zrotation
     End Site
     {
      OFFSET 0.000000 -1.500329 6.694466
     }
    }
   }
  }
 }
}
MOTION
Frames: 12
Frame Time: 0.008333
-178.665944 87.834632 146.720754 -55.384528 -11.805301 2.641627 2.996765 5.376638 -0.376164 1.845623 2.866258 -0.105081 2.306929 3.583235 -0.116934 1.845623 2.866260 -0.105080 30.222821 32.959419 -4.200171 40.395775 19.100100 -11.145945 -11.305363 1.028798 -1.127502 -0.325128 8.125494 89.429264 6.806850 1.030962 4.336012 -0.578559 -4.364425 -1.051640 -7.066805 -0.995832 -1.531935 2.386240 -7.937184 -85.005835 -8.272175 7.555933 -9.479484 -1.886839 8.365395 1.227237 -7.273262 -8.845697 -7.162514 0.981248 57.203992 -6.715650 4.628114 -1.100324 1.370453 -1.283089 -31.582685 5.271957 3.705079 6.434674 -2.531394 5.343688 12.939673 0.865389 8.343061 -8.236389 1.376072 -0.047824 0.107858 -0.159210
-179.199709 87.911654 147.050537 -55.227080 -11.786265 2.527963 2.912250 5.329296 -0.287593 1.776214 2.869432 -0.083242 2.220313 3.587085 -0.090157 1.776215 2.869433 -0.083241 30.116316 32.951358 -4.217963 40.229877 19.046453 -11.154934 -11.345826 1.092483 -1.193305 -0.330603 8.022027 89.453266 7.010547 1.025924 4.412076 -0.539521 -4.371467 -1.062171 -7.136651 -1.044281 -1.606806 2.461961 -8.016174 -85.026949 -8.523168 7.457665 -9.804965 -1.947899 8.266913 1.179499 -6.990111 -9.502054 -6.835748 0.973782 56.364442 -6.443507 4.709377 -1.464206 1.346255 -1.123675 -30.277041 4.918910 3.713492 6.923509 -2.319850 5.340987 12.745878 0.755738 8.186611 -8.322232 1.352306 -0.068458 0.032047 -0.162546
-179.721988 87.985228 147.391462 -55.062160 -11.784875 2.416494 2.827528 5.290705 -0.201872 1.705252 2.878340 -0.060304 2.131764 3.598106 -0.061990 1.705252 2.878342 -0.060303 29.999399 32.935961 -4.238397 40.047903 18.978001 -11.166529 -11.377832 1.147458 -1.252227 -0.360365 7.918652 89.468906 7.219573 1.023871 4.492759 -0.493720 -4.387364 -1.072793 -7.200199 -1.098278 -1.686069 2.505147 -8.094860 -85.027763 -8.760174 7.367871 -10.122861 -2.003868 8.179615 1.115376 -6.692884 -10.078936 -6.524276 0.992968 55.367685 -6.124285 4.804175 -1.844131 1.316746 -0.967153 -28.905958 4.562728 3.714912 7.416722 -2.126194 5.324556 12.571303 0.654700 8.052739 -8.418061 1.332821 -0.084130 -0.037620 -0.166830
-180.233123 88.055439 147.743429 -54.892074 -11.801932 2.309028 2.744702 5.257681 -0.119362 1.633799 2.892822 -0.035260 2.042622 3.616093 -0.031174 1.633799 2.892824 -0.035259 29.873326 32.916857 -4.259395 39.851550 18.900257 -11.177771 -11.402261 1.196842 -1.308913 -0.408052 7.817851 89.481526 7.431522 1.016596 4.572119 -0.444354 -4.403120 -1.085055 -7.258162 -1.153641 -1.773106 2.516429 -8.176843 -85.008859 -8.985393 7.293883 -10.428500 -2.052452 8.108671 1.030711 -6.360819 -10.568395 -6.237779 1.050886 54.212260 -5.748972 4.881763 -2.221017 1.317789 -0.815400 -27.447819 4.198324 3.706925 7.910823 -1.950652 5.303312 12.425567 0.565573 7.927069 -8.523089 1.314530 -0.095522 -0.106184 -0.171143
-180.733486 88.122381 148.106586 -54.713442 -11.839479 2.209967 2.661537 5.233855 -0.046189 1.563596 2.912083 -0.008097 1.955063 3.640053 0.002317 1.563597 2.912084 -0.008097 29.736157 32.894496 -4.281414 39.638022 18.813264 -11.188854 -11.424150 1.244696 -1.364509 -0.462637 7.719726 89.495428 7.644137 0.993466 4.646840 -0.388266 -4.419557 -1.098942 -7.316959 -1.208165 -1.867616 2.498944 -8.265149 -84.972458 -9.200806 7.244263 -10.715176 -2.090921 8.058441 0.929447 -5.991516 -10.964646 -5.986956 1.138288 52.900810 -5.327153 4.877758 -2.572331 1.413337 -0.681395 -25.888627 3.813249 3.671304 8.403988 -1.802704 5.296645 12.314778 0.495775 7.802731 -8.634610 1.294041 -0.102386 -0.178519 -0.175133
-181.223160 88.185844 148.480289 -54.517852 -11.894805 2.121631 2.569621 5.223452 0.012398 1.496139 2.934862 0.020716 1.870954 3.668414 0.037901 1.496139 2.934863 0.020716 29.582995 32.867807 -4.307122 39.400488 18.714154 -11.202502 -11.448140 1.292361 -1.418466 -0.515363 7.618977 89.511244 7.850804 0.949011 4.714243 -0.322163 -4.437882 -1.109507 -7.382335 -1.261786 -1.968179 2.458056 -8.363372 -84.920063 -9.406546 7.228438 -10.977285 -2.117978 8.031302 0.816817 -5.611749 -11.269832 -5.783283 1.223667 51.435791 -4.890720 4.783518 -2.863061 1.631422 -0.573254 -24.233731 3.395261 3.587122 8.896928 -1.689885 5.306054 12.223391 0.443730 7.691581 -8.712560 1.273562 -0.103023 -0.282906 -0.178906
-181.703588 88.244883 148.859051 -54.320314 -11.952305 2.024439 2.484783 5.221089 0.078469 1.431934 2.959478 0.049606 1.790916 3.699081 0.073607 1.431934 2.959478 0.049606 29.409124 32.834021 -4.338541 39.132151 18.597411 -11.220780 -11.475839 1.339002 -1.467732 -0.562448 7.506843 89.532630 8.043671 0.886520 4.769873 -0.249278 -4.457205 -1.117846 -7.452296 -1.317213 -2.070086 2.395643 -8.472176 -84.853108 -9.604183 7.247959 -11.214680 -2.132384 8.030464 0.697133 -5.250437 -11.495606 -5.609612 1.292968 49.807672 -4.479239 4.659247 -3.100337 1.949781 -0.474975 -22.445005 2.944682 3.466163 9.365601 -1.588333 5.321141 12.181112 0.404694 7.611333 -8.845610 1.253468 -0.102291 -0.352401 -0.186620
-182.174333 88.298568 149.240623 -54.123117 -11.997182 1.920132 2.404901 5.221572 0.149284 1.372202 2.983601 0.077350 1.716466 3.729144 0.107906 1.372203 2.983602 0.077350 29.209907 32.790449 -4.375960 38.825876 18.457217 -11.243464 -11.504402 1.383140 -1.508920 -0.607385 7.380785 89.562076 8.218311 0.814517 4.812263 -0.174490 -4.480291 -1.128399 -7.522133 -1.375419 -2.169240 2.308876 -8.588461 -84.775215 -9.794139 7.295932 -11.425029 -2.135891 8.055284 0.573438 -4.950549 -11.664815 -5.461165 1.335884 48.031864 -4.141252 4.577401 -3.255161 2.357640 -0.389574 -20.548829 2.461458 3.311228 9.802373 -1.497048 5.338728 12.167456 0.373165 7.557807 -8.992327 1.240258 -0.100156 -0.415556 -0.199712
-182.636948 88.346407 149.624507 -53.930831 -12.028798 1.814013 2.328666 5.230564 0.221427 1.319227 3.004393 0.103820 1.650454 3.755055 0.140648 1.319228 3.004393 0.103820 28.980576 32.737197 -4.417658 38.474002 18.291434 -11.267363 -11.532193 1.421410 -1.542440 -0.655965 7.247313 89.595625 8.374192 0.739852 4.843845 -0.101237 -4.505022 -1.142570 -7.594980 -1.433325 -2.266718 2.199418 -8.709361 -84.689780 -9.973798 7.366127 -11.602991 -2.132794 8.096983 0.449301 -4.748341 -11.801336 -5.333910 1.332369 46.168558 -3.908272 4.561064 -3.354437 2.831039 -0.315858 -18.546167 1.962215 3.125710 10.208002 -1.419015 5.372114 12.186216 0.346474 7.524985 -9.176127 1.236138 -0.097050 -0.454966 -0.217593
-183.092317 88.388575 150.015442 -53.718455 -12.061765 1.733974 2.223851 5.266735 0.265154 1.274088 3.018392 0.128696 1.594225 3.772483 0.171432 1.274088 3.018392 0.128696 28.720146 32.676657 -4.460703 38.074725 18.102725 -11.288029 -11.557446 1.451243 -1.570331 -0.708065 7.117685 89.628889 8.512514 0.663727 4.865271 -0.033183 -4.525923 -1.158406 -7.670049 -1.486490 -2.364756 2.070933 -8.830867 -84.598131 -10.140354 7.452874 -11.747890 -2.122719 8.149171 0.329286 -4.686302 -11.906411 -5.257976 1.299660 44.244939 -3.752820 4.584347 -3.344356 3.315779 -0.239966 -16.471153 1.483783 2.874383 10.605608 -1.390217 5.439756 12.208944 0.323514 7.504293 -9.318236 1.243697 -0.088272 -0.530550 -0.235474
-183.541089 88.422821 150.401658 -53.535310 -12.046458 1.645328 2.142175 5.282350 0.324496 1.236893 3.022240 0.151537 1.547906 3.777232 0.199701 1.236893 3.022240 0.151538 28.430222 32.611783 -4.502379 37.630507 17.895817 -11.301632 -11.579150 1.474640 -1.594982 -0.757542 7.001657 89.662223 8.635112 0.585055 4.875280 0.022937 -4.542932 -1.172549 -7.742949 -1.531856 -2.460772 1.926450 -8.946240 -84.505221 -10.290722 7.550390 -11.859479 -2.104593 8.206845 0.215584 -4.727607 -12.020885 -5.172516 1.297805 42.260829 -3.621713 4.603673 -3.293897 3.776826 -0.179261 -14.211382 1.048696 2.622445 10.937010 -1.357091 5.541605 12.267699 0.305813 7.479848 -9.506720 1.254498 -0.079912 -0.577349 -0.254688
-183.984289 88.448586 150.780464 -53.386138 -11.969709 1.546507 2.092487 5.263749 0.401236 1.206800 3.015214 0.171671 1.510437 3.768399 0.224604 1.206800 3.015214 0.171671 28.112669 32.544173 -4.540773 37.144393 17.673762 -11.305576 -11.598853 1.496276 -1.616481 -0.798403 6.900963 89.698595 8.743872 0.506942 4.876342 0.063987 -4.560428 -1.188073 -7.815223 -1.570118 -2.547497 1.773025 -9.050585 -84.420787 -10.420814 7.655124 -11.935773 -2.080632 8.265120 0.110049 -4.863408 -12.154396 -5.056090 1.355706 40.214563 -3.504596 4.590447 -3.225367 4.196716 -0.145244 -11.715485 0.672558 2.394840 11.192636 -1.310431 5.657876 12.355381 0.292091 7.448422 -9.729652 1.267808 -0.072617 -0.602777 -0.275206
